<svg width="200" height="215" viewBox="0 0 200 215" fill="none" xmlns="http://www.w3.org/2000/svg">
<path d="M0 213.058C20.1793 196.544 110.576 65.8869 118.451 166.471C122.789 204.251 198.676 242.01 198.675 185.32C198.675 174.649 102.097 228.11 70.3813 211.724C62.8656 207.84 97.5013 154.694 48.8004 161.181C21.8206 164.775 31.6634 85.9521 29.6947 34.409C28.95 14.9121 21.456 0 3.67299 0H0" fill="#ff6b35"/>
<mask id="mask0_124_27" style="mask-type:luminance" maskUnits="userSpaceOnUse" x="0" y="0" width="199" height="215">
<path d="M0 213.058C20.1793 196.544 110.576 65.8869 118.451 166.471C122.789 204.251 198.676 242.01 198.675 185.32C198.675 174.649 102.097 228.11 70.3813 211.724C62.8656 207.84 97.5013 154.694 48.8004 161.181C21.8206 164.775 31.6634 85.9521 29.6947 34.409C28.95 14.9121 21.456 0 3.67299 0H0" fill="white"/>
</mask>
<g mask="url(#mask0_124_27)">
<path d="M118.451 166.471L117.121 166.574L117.123 166.598L117.126 166.622L118.451 166.471ZM-8.16052e-06 213.058L0.845199 214.087C3.46248 211.945 7.15046 208.017 11.5563 203.074C15.9753 198.117 21.2149 192.026 26.9154 185.546C38.3502 172.547 51.7315 157.876 64.703 146.867C71.1893 141.362 77.5287 136.812 83.432 133.844C89.354 130.866 94.692 129.555 99.24 130.307C103.704 131.045 107.645 133.814 110.755 139.55C113.892 145.336 116.143 154.084 117.121 166.574L118.451 166.471L119.78 166.367C118.789 153.712 116.493 144.539 113.1 138.283C109.681 131.977 105.11 128.579 99.676 127.681C94.3267 126.795 88.382 128.374 82.2327 131.466C76.064 134.567 69.5427 139.265 62.9759 144.838C49.8415 155.985 36.3479 170.789 24.9119 183.789C19.1769 190.308 13.9821 196.348 9.56433 201.305C5.13347 206.275 1.58232 210.042 -0.845215 212.029L-8.16052e-06 213.058ZM118.451 166.471L117.126 166.622C118.256 176.46 124.014 186.162 131.858 194.253C139.715 202.356 149.776 208.962 159.735 212.573C169.655 216.17 179.717 216.876 187.38 212.777C195.149 208.622 200.009 199.782 200.009 185.32H198.675H197.342C197.342 199.203 192.717 206.902 186.121 210.43C179.419 214.015 170.24 213.55 160.645 210.071C151.091 206.606 141.367 200.232 133.774 192.401C126.169 184.557 120.815 175.371 119.775 166.319L118.451 166.471ZM198.675 185.32H200.009C200.009 184.72 199.831 184.124 199.407 183.633C198.999 183.162 198.461 182.9 197.941 182.755C196.941 182.478 195.653 182.537 194.264 182.747C191.431 183.175 187.433 184.361 182.659 185.988C173.134 189.235 159.928 194.455 145.975 199.411C131.935 204.397 116.969 209.181 103.561 211.702C90.0707 214.238 78.49 214.414 70.994 210.541L70.3813 211.724L69.7687 212.906C78.13 217.226 90.5147 216.864 104.054 214.319C117.674 211.758 132.799 206.917 146.869 201.92C161.024 196.892 173.945 191.772 183.52 188.508C188.296 186.88 192.091 185.768 194.663 185.379C195.978 185.18 196.795 185.201 197.226 185.321C197.42 185.375 197.429 185.42 197.389 185.373C197.331 185.307 197.342 185.253 197.342 185.32H198.675ZM70.3813 211.724L70.994 210.541C70.94 210.514 70.8193 210.438 70.718 210.081C70.608 209.696 70.562 209.106 70.6233 208.268C70.746 206.594 71.26 204.335 71.9767 201.614C73.3847 196.268 75.528 189.325 76.358 182.729C77.184 176.172 76.7827 169.493 72.6527 164.906C68.486 160.277 60.943 158.221 48.6241 159.861L48.8004 161.181L48.9767 162.501C61.0083 160.898 67.3987 163.053 70.6693 166.686C73.9773 170.36 74.5187 175.994 73.7127 182.397C72.9107 188.763 70.848 195.429 69.3973 200.937C68.6847 203.644 68.1067 206.123 67.964 208.074C67.8927 209.048 67.9207 209.992 68.1527 210.808C68.3933 211.654 68.8827 212.449 69.7687 212.906L70.3813 211.724ZM48.8004 161.181L48.6241 159.861C45.6055 160.264 43.1834 159.521 41.1635 157.854C39.0963 156.148 37.3665 153.401 35.9576 149.669C33.1355 142.191 31.7787 131.246 31.2004 118.412C30.6236 105.61 30.8251 91.0781 31.0497 76.4881C31.2738 61.9172 31.5209 47.2871 31.0271 34.3582L29.6947 34.409L28.3623 34.4597C28.8529 47.3024 28.6078 61.8537 28.3833 76.4468C28.1591 91.0202 27.9553 105.634 28.5364 118.532C29.116 131.396 30.4801 142.705 33.4622 150.607C34.9553 154.564 36.8983 157.788 39.4646 159.906C42.0782 162.063 45.2504 162.997 48.9767 162.501L48.8004 161.181ZM29.6947 34.409L31.0271 34.3582C30.6499 24.4855 28.5629 15.6005 24.1765 9.14572C19.7394 2.616 13.0072 -1.3313 3.67299 -1.3313V-2.94447e-05V1.33124C12.1218 1.33124 18.0281 4.84 21.9699 10.6406C25.9625 16.5161 27.9947 24.8355 28.3623 34.4597L29.6947 34.409ZM3.67299 -2.94447e-05V-1.3313H-8.16052e-06V-2.94447e-05V1.33124H3.67299V-2.94447e-05Z" fill="#ff6b35"/>
</g>
<path d="M143.497 37.6984C144.494 34.6321 148.839 34.6321 149.837 37.6984L154.899 53.2535C155.345 54.6248 156.625 55.5532 158.069 55.5532H174.45C177.679 55.5532 179.021 59.6789 176.409 61.5739L163.157 71.1876C161.989 72.035 161.499 73.5373 161.946 74.9085L167.008 90.4637C168.006 93.5297 164.491 96.0797 161.879 94.1846L148.626 84.5709C147.457 83.7235 145.876 83.7235 144.707 84.5709L131.455 94.1846C128.843 96.0797 125.327 93.5297 126.325 90.4637L131.387 74.9085C131.834 73.5373 131.345 72.035 130.177 71.1876L116.924 61.5739C114.312 59.6789 115.654 55.5532 118.883 55.5532H135.264C136.709 55.5532 137.988 54.6248 138.435 53.2535L143.497 37.6984Z" fill="#ff6b35"/>
</svg>
