<svg width="799" height="288" viewBox="0 0 799 288" fill="none" xmlns="http://www.w3.org/2000/svg">
<path d="M268.976 265.486C256.524 265.486 247.352 262.415 241.459 256.272C235.565 250.13 232.618 240.958 232.618 228.755C232.618 219.874 233.531 210.909 235.357 201.861C237.184 192.813 239.3 183.641 241.708 174.344C244.198 165.047 246.356 155.667 248.182 146.204C250.008 136.658 250.921 127.029 250.921 117.317C250.921 110.677 250.133 104.078 248.556 97.52C247.062 90.9624 244.239 84.9858 240.089 79.5903C242.994 78.2622 246.273 76.9341 249.925 75.606C253.661 74.2778 257.105 73.6138 260.26 73.6138C267.149 73.6138 271.881 75.772 274.454 80.0884C277.027 84.3218 278.314 89.5098 278.314 95.6523C278.314 106.111 277.152 116.446 274.828 126.656C272.503 136.783 269.847 146.91 266.859 157.037C263.871 167.164 261.214 177.332 258.89 187.542C256.566 197.752 255.404 208.086 255.404 218.545C255.404 227.593 257.147 233.487 260.633 236.226C264.203 238.882 270.304 240.21 278.937 240.21C286.324 240.21 294.542 238.426 303.59 234.856C312.721 231.287 321.852 226.722 330.982 221.16C340.113 215.599 348.539 209.747 356.258 203.604C363.978 197.378 370.204 191.692 374.935 186.546C375.848 182.479 376.72 178.826 377.55 175.589C378.38 172.352 379.044 169.778 379.542 167.869C381.285 159.485 382.904 151.102 384.398 142.718C385.975 134.251 386.764 125.743 386.764 117.193C386.764 110.635 386.017 104.078 384.522 97.52C383.111 90.9624 380.414 85.0273 376.429 79.7148C379.251 78.3037 382.489 76.9341 386.141 75.606C389.793 74.2778 393.155 73.6138 396.227 73.6138C403.282 73.6138 408.014 75.938 410.421 80.5864C412.911 85.1519 414.156 90.4644 414.156 96.5239C414.156 100.923 413.658 106.277 412.662 112.586C411.666 118.812 410.421 125.369 408.927 132.259C407.433 139.065 405.897 145.623 404.32 151.932C402.743 158.157 401.373 163.47 400.211 167.869C398.717 175.174 397.057 182.894 395.23 191.028C393.404 199.08 392.491 207.049 392.491 214.935C392.491 222.156 393.695 229.046 396.102 235.604C398.592 242.078 403.075 247.764 409.549 252.662C407.972 253.907 405.897 255.401 403.324 257.144C400.75 258.804 398.094 260.298 395.355 261.626C392.699 262.955 390.375 263.619 388.382 263.619C380.331 263.619 374.811 260.962 371.822 255.65C368.917 250.254 367.464 243.614 367.464 235.728C367.464 231.08 367.755 226.224 368.336 221.16C369 216.014 369.789 210.909 370.702 205.845C365.306 211.158 358.5 217.217 350.282 224.024C342.064 230.831 333.224 237.388 323.761 243.697C314.298 250.005 304.793 255.235 295.248 259.385C285.785 263.453 277.027 265.486 268.976 265.486ZM438.816 264.864C435.661 264.864 433.337 263.743 431.843 261.502C430.432 259.178 429.726 256.604 429.726 253.782C429.726 249.549 431.76 244.278 435.827 237.969C439.978 231.578 445.207 224.854 451.516 217.798C457.824 210.66 464.34 203.77 471.064 197.129C477.871 190.406 483.93 184.595 489.243 179.698C484.345 172.144 479.697 164.59 475.297 157.037C470.981 149.4 466.955 142.012 463.22 134.874C459.734 128.233 456.787 121.758 454.38 115.45C452.055 109.141 450.893 103.621 450.893 98.8897C450.893 93.9922 452.304 89.5928 455.127 85.6914C458.032 81.707 462.016 79.4243 467.08 78.8433C468.325 85.7329 470.483 92.8716 473.554 100.259C476.626 107.564 480.195 114.661 484.262 121.551C492.895 136.575 502.483 151.143 513.025 165.254C519.665 158.614 526.223 151.89 532.697 145.084C539.255 138.277 545.688 131.387 551.997 124.415C556.894 118.936 561.335 113.499 565.319 108.104C569.304 102.708 571.296 98.6821 571.296 96.0259C571.296 94.7808 570.59 93.2036 569.179 91.2944C567.851 89.3023 566.772 87.8081 565.942 86.812C568.349 84.9858 571.379 83.0352 575.031 80.96C578.684 78.8018 582.046 77.7227 585.117 77.7227C588.437 77.7227 590.803 78.8848 592.214 81.209C593.708 83.4502 594.455 86.0234 594.455 88.9287C594.455 92.415 593.003 96.6484 590.097 101.629C587.192 106.609 583.374 111.963 578.642 117.691C573.994 123.418 568.889 129.146 563.327 134.874C556.521 142.012 549.548 148.943 542.409 155.667C535.271 162.308 528.09 168.99 520.869 175.713C529.585 186.67 538.549 196.963 547.763 206.592C556.147 215.142 565.07 223.069 574.533 230.374C584.079 237.596 593.501 242.535 602.797 245.191C602.05 249.673 600.307 254.073 597.568 258.389C594.912 262.706 590.969 264.864 585.739 264.864C580.427 264.864 574.409 263.204 567.685 259.883C561.045 256.48 554.238 252.039 547.265 246.561C540.376 241.082 533.86 235.23 527.717 229.004C522.404 223.692 517.175 217.84 512.028 211.448C506.965 205.057 502.026 198.416 497.212 191.526C493.061 195.843 488.454 200.74 483.391 206.219C478.327 211.614 473.471 217.01 468.823 222.405C464.174 227.801 460.315 232.657 457.243 236.973C454.255 241.29 452.761 244.485 452.761 246.561C452.761 247.889 453.466 249.549 454.878 251.541C456.289 253.45 457.409 254.903 458.239 255.899C455.749 257.725 452.678 259.676 449.026 261.751C445.373 263.826 441.97 264.864 438.816 264.864ZM633.06 160.274C633.724 160.274 634.595 160.274 635.675 160.274C637.418 152.72 639.036 145.125 640.531 137.488C642.025 129.769 642.772 122.09 642.772 114.454C642.772 109.805 642.357 105.198 641.527 100.633C640.78 95.9844 639.493 91.419 637.667 86.9365L636.92 85.0689C637.335 84.8198 637.874 84.5293 638.538 84.1973C644.515 81.292 650.823 79.5903 657.464 79.0923C664.105 78.5112 670.662 78.2207 677.137 78.2207C687.762 78.2207 698.345 78.3037 708.887 78.4697C719.429 78.6358 729.971 78.7188 740.513 78.7188C743.17 78.7188 746.324 78.7188 749.976 78.7188C753.712 78.6358 757.364 78.4697 760.933 78.2207C764.586 77.9717 767.615 77.5152 770.023 76.8511C769.11 86.646 766.204 93.3696 761.307 97.022C756.409 100.674 749.271 102.501 739.891 102.501C727.938 102.501 715.985 102.002 704.031 101.006C692.161 100.01 680.291 98.8482 668.421 97.52C668.089 108.311 666.595 118.895 663.939 129.271C661.365 139.646 658.834 149.981 656.344 160.274C664.727 160.191 673.485 160.025 682.615 159.776C691.829 159.527 700.504 159.112 708.638 158.531C716.856 157.867 723.663 156.954 729.058 155.792C729.639 160.689 728.975 164.549 727.066 167.371C725.157 170.193 722.501 172.31 719.097 173.721C715.694 175.049 712 175.921 708.016 176.336C704.115 176.668 700.379 176.834 696.81 176.834C688.675 176.834 680.955 176.834 673.651 176.834C666.346 176.834 659.332 176.834 652.608 176.834C650.616 185.799 648.707 194.847 646.881 203.978C645.054 213.025 644.141 222.073 644.141 231.121C644.141 234.192 644.224 236.973 644.39 239.463C654.683 239.878 664.935 240.169 675.145 240.335C685.438 240.418 695.731 240.459 706.024 240.459C708.763 240.459 712.291 240.459 716.607 240.459C721.007 240.459 725.614 240.376 730.428 240.21C735.242 240.044 739.725 239.754 743.875 239.339C748.109 238.924 751.387 238.343 753.712 237.596C752.882 245.896 750.599 251.956 746.864 255.774C743.211 259.51 738.521 261.876 732.794 262.872C727.066 263.868 720.716 264.366 713.743 264.366C708.099 264.366 701.292 264.2 693.323 263.868C685.355 263.536 677.427 262.996 669.542 262.249C661.656 261.502 654.974 260.547 649.495 259.385C645.179 262.374 640.655 263.868 635.924 263.868C629.117 263.868 624.51 261.668 622.103 257.269C619.779 252.869 618.616 247.723 618.616 241.829C618.616 230.789 620.069 219.874 622.974 209.083C625.88 198.292 628.743 187.584 631.566 176.959C626.419 177.042 621.522 177.125 616.873 177.208C616.79 176.626 616.749 175.838 616.749 174.842C616.749 170.193 618.409 166.624 621.729 164.134C625.05 161.561 628.826 160.274 633.06 160.274Z" fill="currentColor"/>
<path d="M763.392 33.0464V17.9268H757.671V14.2476H773.221V17.9268H767.5V33.0464H763.392ZM775.745 33.0464V14.2476H780.499L785.896 26.8428H786.004L791.402 14.2476H796.155V33.0464H792.503V21.042H790.596L794.705 14.7578L787.239 33.0464H784.661L777.195 14.7578L781.304 21.042H779.397V33.0464H775.745Z" fill="currentColor"/>
<path d="M0 260.058C20.1793 243.544 110.576 112.887 118.451 213.471C122.789 251.251 198.676 289.01 198.675 232.32C198.675 221.649 102.097 275.11 70.3813 258.724C62.8656 254.84 97.5013 201.694 48.8004 208.181C21.8206 211.775 31.6634 132.952 29.6947 81.409C28.95 61.9121 21.456 47 3.67299 47H0" fill="currentColor"/>
<mask id="mask0_35_166" style="mask-type:luminance" maskUnits="userSpaceOnUse" x="0" y="47" width="199" height="215">
<path d="M0 260.058C20.1793 243.544 110.576 112.887 118.451 213.471C122.789 251.251 198.676 289.01 198.675 232.32C198.675 221.649 102.097 275.11 70.3813 258.724C62.8656 254.84 97.5013 201.694 48.8004 208.181C21.8206 211.775 31.6634 132.952 29.6947 81.409C28.95 61.9121 21.456 47 3.67299 47H0" fill="white"/>
</mask>
<g mask="url(#mask0_35_166)">
<path d="M118.451 213.471L117.121 213.574L117.123 213.598L117.126 213.622L118.451 213.471ZM-8.16052e-06 260.058L0.845199 261.087C3.46248 258.945 7.15046 255.017 11.5563 250.074C15.9753 245.117 21.2149 239.026 26.9154 232.546C38.3502 219.547 51.7315 204.876 64.703 193.867C71.1893 188.362 77.5287 183.812 83.432 180.844C89.354 177.866 94.692 176.555 99.24 177.307C103.704 178.045 107.645 180.814 110.755 186.55C113.892 192.336 116.143 201.084 117.121 213.574L118.451 213.471L119.78 213.367C118.789 200.712 116.493 191.539 113.1 185.283C109.681 178.977 105.11 175.579 99.676 174.681C94.3267 173.795 88.382 175.374 82.2327 178.466C76.064 181.567 69.5427 186.265 62.9759 191.838C49.8415 202.985 36.3479 217.789 24.9119 230.789C19.1769 237.308 13.9821 243.348 9.56433 248.305C5.13347 253.275 1.58232 257.042 -0.845215 259.029L-8.16052e-06 260.058ZM118.451 213.471L117.126 213.622C118.256 223.46 124.014 233.162 131.858 241.253C139.715 249.356 149.776 255.962 159.735 259.573C169.655 263.17 179.717 263.876 187.38 259.777C195.149 255.622 200.009 246.782 200.009 232.32H198.675H197.342C197.342 246.203 192.717 253.902 186.121 257.43C179.419 261.015 170.24 260.55 160.645 257.071C151.091 253.606 141.367 247.232 133.774 239.401C126.169 231.557 120.815 222.371 119.775 213.319L118.451 213.471ZM198.675 232.32H200.009C200.009 231.72 199.831 231.124 199.407 230.633C198.999 230.162 198.461 229.9 197.941 229.755C196.941 229.478 195.653 229.537 194.264 229.747C191.431 230.175 187.433 231.361 182.659 232.988C173.134 236.235 159.928 241.455 145.975 246.411C131.935 251.397 116.969 256.181 103.561 258.702C90.0707 261.238 78.49 261.414 70.994 257.541L70.3813 258.724L69.7687 259.906C78.13 264.226 90.5147 263.864 104.054 261.319C117.674 258.758 132.799 253.917 146.869 248.92C161.024 243.892 173.945 238.772 183.52 235.508C188.296 233.88 192.091 232.768 194.663 232.379C195.978 232.18 196.795 232.201 197.226 232.321C197.42 232.375 197.429 232.42 197.389 232.373C197.331 232.307 197.342 232.253 197.342 232.32H198.675ZM70.3813 258.724L70.994 257.541C70.94 257.514 70.8193 257.438 70.718 257.081C70.608 256.696 70.562 256.106 70.6233 255.268C70.746 253.594 71.26 251.335 71.9767 248.614C73.3847 243.268 75.528 236.325 76.358 229.729C77.184 223.172 76.7827 216.493 72.6527 211.906C68.486 207.277 60.943 205.221 48.6241 206.861L48.8004 208.181L48.9767 209.501C61.0083 207.898 67.3987 210.053 70.6693 213.686C73.9773 217.36 74.5187 222.994 73.7127 229.397C72.9107 235.763 70.848 242.429 69.3973 247.937C68.6847 250.644 68.1067 253.123 67.964 255.074C67.8927 256.048 67.9207 256.992 68.1527 257.808C68.3933 258.654 68.8827 259.449 69.7687 259.906L70.3813 258.724ZM48.8004 208.181L48.6241 206.861C45.6055 207.264 43.1834 206.521 41.1635 204.854C39.0963 203.148 37.3665 200.401 35.9576 196.669C33.1355 189.191 31.7787 178.246 31.2004 165.412C30.6236 152.61 30.8251 138.078 31.0497 123.488C31.2738 108.917 31.5209 94.2871 31.0271 81.3582L29.6947 81.409L28.3623 81.4597C28.8529 94.3024 28.6078 108.854 28.3833 123.447C28.1591 138.02 27.9553 152.634 28.5364 165.532C29.116 178.396 30.4801 189.705 33.4622 197.607C34.9553 201.564 36.8983 204.788 39.4646 206.906C42.0782 209.063 45.2504 209.997 48.9767 209.501L48.8004 208.181ZM29.6947 81.409L31.0271 81.3582C30.6499 71.4855 28.5629 62.6005 24.1765 56.1457C19.7394 49.616 13.0072 45.6687 3.67299 45.6687V47V48.3312C12.1218 48.3312 18.0281 51.84 21.9699 57.6406C25.9625 63.5161 27.9947 71.8355 28.3623 81.4597L29.6947 81.409ZM3.67299 47V45.6687H-8.16052e-06V47V48.3312H3.67299V47Z" fill="currentColor"/>
</g>
</svg>
